<svg width="13.001450" height="11.377075" viewBox="0 0 13.0014 11.3771" fill="none" xmlns="http://www.w3.org/2000/svg" xmlns:xlink="http://www.w3.org/1999/xlink">
	<desc>
			Created with Pixso.
	</desc>
	<defs/>
	<path id="Vector" d="M0 5.68C0 5.47 0.08 5.26 0.23 5.11C0.39 4.96 0.59 4.87 0.81 4.87L10.22 4.87L6.73 1.38C6.58 1.23 6.49 1.02 6.49 0.81C6.49 0.59 6.58 0.39 6.73 0.23C6.88 0.08 7.09 0 7.31 0C7.52 0 7.73 0.08 7.88 0.23L12.76 5.11C12.83 5.18 12.89 5.27 12.93 5.37C12.98 5.47 13 5.58 13 5.68C13 5.79 12.98 5.9 12.93 5.99C12.89 6.09 12.83 6.18 12.76 6.26L7.88 11.13C7.73 11.29 7.52 11.37 7.31 11.37C7.09 11.37 6.88 11.29 6.73 11.13C6.58 10.98 6.49 10.77 6.49 10.56C6.49 10.34 6.58 10.14 6.73 9.98L10.22 6.5L0.81 6.5C0.59 6.5 0.39 6.41 0.23 6.26C0.08 6.11 0 5.9 0 5.68Z" fill="#FFFFFF" fill-opacity="1.000000" fill-rule="evenodd"/>
</svg>
