<svg width="24.000000" height="24.000000" viewBox="0 0 24 24" fill="none" xmlns="http://www.w3.org/2000/svg" xmlns:xlink="http://www.w3.org/1999/xlink">
	<desc>
			Created with Pixso.
	</desc>
	<defs>
		<clipPath id="clip346_6705">
			<rect id="calendar_line 1" width="24.000000" height="24.000000" fill="white" fill-opacity="0"/>
		</clipPath>
	</defs>
	<rect id="calendar_line 1" width="24.000000" height="24.000000" fill="#FFFFFF" fill-opacity="0"/>
	<g clip-path="url(#clip346_6705)">
		<path id="形状" d="M16 3C16.51 3 16.93 3.38 16.99 3.88L17 4L17 5L19 5C20.05 5 20.91 5.81 20.99 6.85L21 7L21 19C21 20.05 20.18 20.91 19.14 20.99L19 21L5 21C3.94 21 3.08 20.18 3 19.14L3 19L3 7C3 5.94 3.81 5.08 4.85 5L5 5L7 5L7 4C7 3.44 7.44 3 8 3C8.51 3 8.93 3.38 8.99 3.88L9 4L9 5L15 5L15 4C15 3.44 15.44 3 16 3ZM19 12L5 12L5 19L19 19L19 12ZM19 7L5 7L5 10L19 10L19 7Z" fill="#182F43" fill-opacity="0.500000" fill-rule="nonzero"/>
	</g>
</svg>
