<svg width="24.000000" height="24.000000" viewBox="0 0 24 24" fill="none" xmlns="http://www.w3.org/2000/svg" xmlns:xlink="http://www.w3.org/1999/xlink">
	<desc>
			Created with Pixso.
	</desc>
	<defs>
		<clipPath id="clip346_6694">
			<rect id="location_line (1) 1" width="24.000000" height="24.000000" fill="white" fill-opacity="0"/>
		</clipPath>
	</defs>
	<rect id="location_line (1) 1" width="24.000000" height="24.000000" fill="#FFFFFF" fill-opacity="0"/>
	<g clip-path="url(#clip346_6694)">
		<path id="形状" d="M12 2C16.97 2 21 6.02 21 11C21 14.07 19.32 16.58 17.55 18.39C16.58 19.38 15.55 20.19 14.68 20.81L14.25 21.1C14.18 21.14 14.12 21.19 14.05 21.23L13.67 21.47L13.34 21.67L12.92 21.92C12.34 22.24 11.65 22.24 11.07 21.92L10.65 21.67L10.13 21.35C10.07 21.31 10.01 21.27 9.94 21.23L9.53 20.96C8.61 20.33 7.49 19.46 6.44 18.39C4.67 16.58 3 14.07 3 11C3 6.02 7.02 2 12 2ZM12 4C8.13 4 5 7.13 5 11C5 13.32 6.27 15.36 7.87 16.99C8.6 17.74 9.38 18.38 10.09 18.9L10.55 19.23C10.69 19.33 10.84 19.43 10.97 19.52L11.36 19.76L11.71 19.97L12 20.14L12.45 19.87L12.82 19.64C13.01 19.52 13.22 19.38 13.44 19.23L13.9 18.9C14.61 18.38 15.39 17.74 16.12 16.99C17.72 15.36 19 13.32 19 11C19 7.13 15.86 4 12 4ZM12 7C14.2 7 16 8.79 16 11C16 13.2 14.2 15 12 15C9.79 15 8 13.2 8 11C8 8.79 9.79 7 12 7ZM12 9C10.89 9 10 9.89 10 11C10 12.1 10.89 13 12 13C13.1 13 14 12.1 14 11C14 9.89 13.1 9 12 9Z" fill="#182F43" fill-opacity="0.500000" fill-rule="evenodd"/>
	</g>
</svg>
